<svg id="visual" viewBox="0 0 900 600" width="900" height="600" xmlns="http://www.w3.org/2000/svg" xmlns:xlink="http://www.w3.org/1999/xlink" version="1.1"><rect x="0" y="0" width="900" height="600" fill="#001220"></rect><defs><linearGradient id="grad1_0" x1="33.3%" y1="0%" x2="100%" y2="100%"><stop offset="20%" stop-color="#001220" stop-opacity="1"></stop><stop offset="80%" stop-color="#001220" stop-opacity="1"></stop></linearGradient></defs><defs><linearGradient id="grad2_0" x1="0%" y1="0%" x2="66.7%" y2="100%"><stop offset="20%" stop-color="#001220" stop-opacity="1"></stop><stop offset="80%" stop-color="#001220" stop-opacity="1"></stop></linearGradient></defs><g transform="translate(900, 0)"><path d="M0 486.7C-30.7 405.1 -61.4 323.5 -129.7 313.2C-198.1 302.8 -304 363.7 -344.2 344.2C-384.3 324.6 -358.6 224.6 -371.4 153.8C-384.2 83.1 -435.5 41.5 -486.7 0L0 0Z" fill="#FBAE3C"></path></g><g transform="translate(0, 600)"><path d="M0 -486.7C45.6 -440.9 91.2 -395 157.3 -379.7C223.3 -364.5 309.8 -379.9 344.2 -344.2C378.6 -308.5 360.9 -221.6 376 -155.8C391.1 -89.9 438.9 -44.9 486.7 0L0 0Z" fill="#FBAE3C"></path></g></svg>